<svg xmlns="http://www.w3.org/2000/svg" width="2299.6570312500003" height="150.0"><line x1="30.0" x2="2269.6570312500003" y1="25.0" y2="25.0" stroke="#1967d2" stroke-width="1" /><line x1="30.0" x2="2269.6570312500003" y1="75.0" y2="75.0" stroke="#1967d2" stroke-width="1" /><line x1="30.0" x2="2269.6570312500003" y1="125.0" y2="125.0" stroke="#1967d2" stroke-width="1" /><line x1="238.6116015625" x2="238.6116015625" y1="25.0" y2="75.0" stroke="black" stroke-width="3" /><line x1="517.7007421875" x2="517.7007421875" y1="25.0" y2="75.0" stroke="black" stroke-width="3" /><line x1="796.7898828125001" x2="796.7898828125001" y1="25.0" y2="75.0" stroke="black" stroke-width="3" /><line x1="868.7646289062501" x2="868.7646289062501" y1="75.0" y2="125.0" stroke="black" stroke-width="3" /><line x1="1159.8285156250001" x2="1159.8285156250001" y1="75.0" y2="125.0" stroke="black" stroke-width="3" /><line x1="1438.9176562500002" x2="1438.9176562500002" y1="75.0" y2="125.0" stroke="black" stroke-width="3" /><line x1="1587.5292578125002" x2="1587.5292578125002" y1="25.0" y2="125.0" stroke="black" stroke-width="3" /><line x1="1866.6183984375002" x2="1866.6183984375002" y1="25.0" y2="125.0" stroke="black" stroke-width="3" /><line x1="2145.7075390625005" x2="2145.7075390625005" y1="25.0" y2="125.0" stroke="black" stroke-width="3" /><rect x="10.0" y="5.0" width="40" height="40" stroke="black" fill="white" stroke-width="0" /><text x="30.0" y="25.0" dominant-baseline="middle" text-anchor="middle" font-size="14px" font-family="Arial">0: </text><rect x="10.0" y="55.0" width="40" height="40" stroke="black" fill="white" stroke-width="0" /><text x="30.0" y="75.0" dominant-baseline="middle" text-anchor="middle" font-size="14px" font-family="Arial">1: </text><rect x="10.0" y="105.0" width="40" height="40" stroke="black" fill="white" stroke-width="0" /><text x="30.0" y="125.0" dominant-baseline="middle" text-anchor="middle" font-size="14px" font-family="Arial">2: </text><rect x="70.0" y="5.0" width="40" height="40" stroke="black" fill="white" stroke-width="1" /><text x="90.0" y="25.0" dominant-baseline="middle" text-anchor="middle" font-size="18px" font-family="Arial">H</text><rect x="70.0" y="55.0" width="40" height="40" stroke="black" fill="white" stroke-width="1" /><text x="90.0" y="75.0" dominant-baseline="middle" text-anchor="middle" font-size="18px" font-family="Arial">H</text><rect x="70.0" y="105.0" width="40" height="40" stroke="black" fill="white" stroke-width="1" /><text x="90.0" y="125.0" dominant-baseline="middle" text-anchor="middle" font-size="18px" font-family="Arial">H</text><rect x="130.0" y="55.0" width="68.6116015625" height="40" stroke="black" fill="white" stroke-width="1" /><text x="164.30580078125" y="75.0" dominant-baseline="middle" text-anchor="middle" font-size="14px" font-family="Arial">Rz(-0.5π)</text><rect x="130.0" y="105.0" width="68.6116015625" height="40" stroke="black" fill="white" stroke-width="1" /><text x="164.30580078125" y="125.0" dominant-baseline="middle" text-anchor="middle" font-size="14px" font-family="Arial">Rz(-0.5π)</text><circle cx="238.6116015625" cy="75.0" r="10.0" /><rect x="218.6116015625" y="5.0" width="40" height="40" stroke="black" fill="white" stroke-width="1" /><text x="238.6116015625" y="25.0" dominant-baseline="middle" text-anchor="middle" font-size="18px" font-family="Arial">X</text><rect x="278.6116015625" y="5.0" width="199.08914062500003" height="40" stroke="black" fill="white" stroke-width="1" /><text x="378.15617187500004" y="25.0" dominant-baseline="middle" text-anchor="middle" font-size="14px" font-family="Arial">Rz(1.5707963267949 - theta0)</text><rect x="278.6116015625" y="55.0" width="199.08914062500003" height="40" stroke="black" fill="white" stroke-width="1" /><text x="378.15617187500004" y="75.0" dominant-baseline="middle" text-anchor="middle" font-size="14px" font-family="Arial">Ry(theta0 - 1.5707963267949)</text><circle cx="517.7007421875" cy="25.0" r="10.0" /><rect x="497.70074218750005" y="55.0" width="40" height="40" stroke="black" fill="white" stroke-width="1" /><text x="517.7007421875" y="75.0" dominant-baseline="middle" text-anchor="middle" font-size="18px" font-family="Arial">X</text><rect x="557.7007421875" y="55.0" width="199.08914062500003" height="40" stroke="black" fill="white" stroke-width="1" /><text x="657.2453125000001" y="75.0" dominant-baseline="middle" text-anchor="middle" font-size="14px" font-family="Arial">Ry(1.5707963267949 - theta0)</text><circle cx="796.7898828125001" cy="75.0" r="10.0" /><rect x="776.7898828125001" y="5.0" width="40" height="40" stroke="black" fill="white" stroke-width="1" /><text x="796.7898828125001" y="25.0" dominant-baseline="middle" text-anchor="middle" font-size="18px" font-family="Arial">X</text><rect x="836.7898828125001" y="5.0" width="63.9494921875" height="40" stroke="black" fill="white" stroke-width="1" /><text x="868.7646289062501" y="25.0" dominant-baseline="middle" text-anchor="middle" font-size="14px" font-family="Arial">Rz(0.5π)</text><circle cx="868.7646289062501" cy="125.0" r="10.0" /><rect x="836.7898828125001" y="55.0" width="63.9494921875" height="40" stroke="black" fill="white" stroke-width="1" /><text x="868.7646289062501" y="75.0" dominant-baseline="middle" text-anchor="middle" font-size="18px" font-family="Arial">X</text><rect x="920.7393750000001" y="55.0" width="199.08914062500003" height="40" stroke="black" fill="white" stroke-width="1" /><text x="1020.2839453125001" y="75.0" dominant-baseline="middle" text-anchor="middle" font-size="14px" font-family="Arial">Rz(1.5707963267949 - theta0)</text><rect x="920.7393750000001" y="105.0" width="199.08914062500003" height="40" stroke="black" fill="white" stroke-width="1" /><text x="1020.2839453125001" y="125.0" dominant-baseline="middle" text-anchor="middle" font-size="14px" font-family="Arial">Ry(theta0 - 1.5707963267949)</text><circle cx="1159.8285156250001" cy="75.0" r="10.0" /><rect x="1139.8285156250001" y="105.0" width="40" height="40" stroke="black" fill="white" stroke-width="1" /><text x="1159.8285156250001" y="125.0" dominant-baseline="middle" text-anchor="middle" font-size="18px" font-family="Arial">X</text><rect x="1199.828515625" y="105.0" width="199.08914062500003" height="40" stroke="black" fill="white" stroke-width="1" /><text x="1299.3730859375" y="125.0" dominant-baseline="middle" text-anchor="middle" font-size="14px" font-family="Arial">Ry(1.5707963267949 - theta0)</text><circle cx="1438.9176562500002" cy="125.0" r="10.0" /><rect x="1418.9176562500002" y="55.0" width="40" height="40" stroke="black" fill="white" stroke-width="1" /><text x="1438.9176562500002" y="75.0" dominant-baseline="middle" text-anchor="middle" font-size="18px" font-family="Arial">X</text><rect x="1478.9176562500002" y="55.0" width="68.6116015625" height="40" stroke="black" fill="white" stroke-width="1" /><text x="1513.22345703125" y="75.0" dominant-baseline="middle" text-anchor="middle" font-size="14px" font-family="Arial">Rz(0.5π)</text><rect x="1478.9176562500002" y="105.0" width="68.6116015625" height="40" stroke="black" fill="white" stroke-width="1" /><text x="1513.22345703125" y="125.0" dominant-baseline="middle" text-anchor="middle" font-size="14px" font-family="Arial">Rz(-0.5π)</text><circle cx="1587.5292578125002" cy="125.0" r="10.0" /><rect x="1567.5292578125002" y="5.0" width="40" height="40" stroke="black" fill="white" stroke-width="1" /><text x="1587.5292578125002" y="25.0" dominant-baseline="middle" text-anchor="middle" font-size="18px" font-family="Arial">X</text><rect x="1627.5292578125" y="5.0" width="199.08914062500003" height="40" stroke="black" fill="white" stroke-width="1" /><text x="1727.073828125" y="25.0" dominant-baseline="middle" text-anchor="middle" font-size="14px" font-family="Arial">Rz(1.5707963267949 - theta1)</text><rect x="1627.5292578125" y="105.0" width="199.08914062500003" height="40" stroke="black" fill="white" stroke-width="1" /><text x="1727.073828125" y="125.0" dominant-baseline="middle" text-anchor="middle" font-size="14px" font-family="Arial">Ry(theta1 - 1.5707963267949)</text><circle cx="1866.6183984375002" cy="25.0" r="10.0" /><rect x="1846.6183984375002" y="105.0" width="40" height="40" stroke="black" fill="white" stroke-width="1" /><text x="1866.6183984375002" y="125.0" dominant-baseline="middle" text-anchor="middle" font-size="18px" font-family="Arial">X</text><rect x="1906.6183984375002" y="105.0" width="199.08914062500003" height="40" stroke="black" fill="white" stroke-width="1" /><text x="2006.1629687500003" y="125.0" dominant-baseline="middle" text-anchor="middle" font-size="14px" font-family="Arial">Ry(1.5707963267949 - theta1)</text><circle cx="2145.7075390625005" cy="125.0" r="10.0" /><rect x="2125.7075390625005" y="5.0" width="40" height="40" stroke="black" fill="white" stroke-width="1" /><text x="2145.7075390625005" y="25.0" dominant-baseline="middle" text-anchor="middle" font-size="18px" font-family="Arial">X</text><rect x="2185.7075390625005" y="5.0" width="63.9494921875" height="40" stroke="black" fill="white" stroke-width="1" /><text x="2217.6822851562506" y="25.0" dominant-baseline="middle" text-anchor="middle" font-size="14px" font-family="Arial">Rz(0.5π)</text></svg>